<?xml version="1.0" encoding="UTF-8"?>
<svg xmlns="http://www.w3.org/2000/svg" viewBox="0 0 1024 1024">
  <rect width="1024" height="1024" rx="224" fill="#ffffff"/>
  <g transform="rotate(-8 512 512)">
    <path fill="#f7941d" d="M262 230h417c34 0 62 28 62 62v67l83 56-57 84-26-18v313c0 34-28 62-62 62H262c-34 0-62-28-62-62V292c0-34 28-62 62-62zm0 74v490h417V304H262z"/>
    <path fill="#f7941d" d="M359 174h222c24 0 43 19 43 43v105H316V217c0-24 19-43 43-43zm56 63c0 25 20 45 45 45s45-20 45-45-20-45-45-45-45 20-45 45z"/>
    <path fill="#f7941d" d="M326 661l227-274H342v-86h348v73L463 649h232v86H326z"/>
    <path fill="#f7941d" d="M200 610h116v184H262c-34 0-62-28-62-62V610z"/>
  </g>
</svg>
